<?xml version="1.0" encoding="UTF-8"?>
<svg version="1.1" xmlns="http://www.w3.org/2000/svg" width="50" height="50">
<path d="M0 0 C4.76162352 2.77039914 6.92741494 5.82674444 8.5234375 10.9609375 C9.47397755 15.02800231 9.88998888 18.24968853 7.9453125 22.07421875 C7.09264816 23.43898623 6.20882539 24.78499044 5.2890625 26.10546875 C3.99673007 28.00480581 2.98369898 29.92687738 2 32 C3.98 32.33 5.96 32.66 8 33 C8.33 33.99 8.66 34.98 9 36 C10.423125 36.1546875 10.423125 36.1546875 11.875 36.3125 C15 37 15 37 17 40 C17 42.64 17 45.28 17 48 C2.48 48 -12.04 48 -27 48 C-27 40 -27 40 -25.25 37.5 C-23 36 -23 36 -19 36 C-18.67 35.01 -18.34 34.02 -18 33 C-15.03 32.505 -15.03 32.505 -12 32 C-12.4125 31.319375 -12.825 30.63875 -13.25 29.9375 C-13.8275 28.968125 -14.405 27.99875 -15 27 C-15.35964844 26.45730469 -15.71929687 25.91460938 -16.08984375 25.35546875 C-18.78966459 21.09916756 -19.71149256 18.15832108 -19 13 C-17.60312722 8.60022425 -15.82624788 4.99635773 -12.875 1.4375 C-8.56412229 -0.71793885 -4.71888058 -0.85454087 0 0 Z M-14 8 C-15.60500143 13.56400497 -14.90285813 18.61376771 -13 24 C-11.55985074 26.69138543 -11.55985074 26.69138543 -9 28 C-5.05986365 28.77019126 -2.08680169 28.65780102 1.375 26.5625 C4.41863188 21.76292664 5.03109303 16.86558156 4.9375 11.25 C3.74569464 7.11840808 2.52232933 5.47312485 -1 3 C-6.8658678 1.54242073 -10.4827302 2.99055513 -14 8 Z M-10 31 C-9.34 32.65 -8.68 34.3 -8 36 C-6.02 36 -4.04 36 -2 36 C-1.34 34.35 -0.68 32.7 0 31 C-3.3 31 -6.6 31 -10 31 Z M-17 37 C-17 39.97 -17 42.94 -17 46 C-9.08 46 -1.16 46 7 46 C7 43.03 7 40.06 7 37 C5.35 36.34 3.7 35.68 2 35 C1.67 35.495 1.34 35.99 1 36.5 C-1.7259795 38.54448462 -3.79717425 38.4146536 -7.1328125 38.3046875 C-9.57108201 37.90681089 -10.53887122 36.9481717 -12 35 C-14.32357511 34.81509993 -14.32357511 34.81509993 -17 37 Z M-22 39 C-24.34594772 42.20447416 -24.34594772 42.20447416 -25 46 C-23.02 46 -21.04 46 -19 46 C-19 43.69 -19 41.38 -19 39 C-19.99 39 -20.98 39 -22 39 Z M9 39 C9 41.31 9 43.62 9 46 C10.98 46 12.96 46 15 46 C14.3045656 42.99615946 14.3045656 42.99615946 13 40 C10.96756452 39.03122943 10.96756452 39.03122943 9 39 Z " fill="#000000" transform="translate(30,1)"/>
<path d="M0 0 C0.99 0.33 1.98 0.66 3 1 C3 1.66 3 2.32 3 3 C3.99 3.33 4.98 3.66 6 4 C5.67 4.99 5.34 5.98 5 7 C4.34 7 3.68 7 3 7 C2.67 7.99 2.34 8.98 2 10 C1.01 9.67 0.02 9.34 -1 9 C-1 8.34 -1 7.68 -1 7 C-1.99 6.67 -2.98 6.34 -4 6 C-3.67 5.01 -3.34 4.02 -3 3 C-2.34 3 -1.68 3 -1 3 C-0.67 2.01 -0.34 1.02 0 0 Z " fill="#000000" transform="translate(22,8)"/>
<path d="M0 0 C1.32 0.66 2.64 1.32 4 2 C3.34 3.32 2.68 4.64 2 6 C0.68 5.34 -0.64 4.68 -2 4 C-1.34 2.68 -0.68 1.36 0 0 Z " fill="#000000" transform="translate(27,19)"/>
<path d="M0 0 C0.66 0 1.32 0 2 0 C2 0.99 2 1.98 2 3 C1.34 3 0.68 3 0 3 C0 2.01 0 1.02 0 0 Z " fill="#000000" transform="translate(33,42)"/>
<path d="M0 0 C0.66 0 1.32 0 2 0 C2 0.99 2 1.98 2 3 C1.34 3 0.68 3 0 3 C0 2.01 0 1.02 0 0 Z " fill="#000000" transform="translate(30,42)"/>
</svg>
