<?xml version="1.0" standalone="no"?>
<!DOCTYPE svg PUBLIC "-//W3C//DTD SVG 20010904//EN"
 "http://www.w3.org/TR/2001/REC-SVG-20010904/DTD/svg10.dtd">
<svg version="1.0" xmlns="http://www.w3.org/2000/svg"
 width="50.000000pt" height="50.000000pt" viewBox="0 0 50.000000 50.000000"
 preserveAspectRatio="xMidYMid meet">

<g transform="translate(0.000000,50.000000) scale(0.100000,-0.100000)"
fill="#000000" stroke="none">
<path d="M204 481 c-31 -14 -74 -69 -74 -96 0 -13 -4 -27 -10 -30 -15 -9 -12
-51 5 -65 8 -7 15 -18 15 -25 0 -7 9 -24 20 -38 11 -14 20 -32 20 -40 0 -7
-28 -28 -62 -46 -74 -38 -88 -54 -88 -98 l0 -33 220 0 220 0 0 33 c0 44 -14
60 -87 98 -35 18 -63 39 -63 46 0 8 9 26 20 40 11 14 20 31 20 38 0 7 7 18 15
25 17 14 20 56 5 65 -5 3 -10 17 -10 31 0 40 -58 94 -105 99 -22 3 -49 1 -61
-4z m95 -26 c39 -20 54 -63 49 -136 -4 -54 -8 -66 -36 -90 -42 -38 -82 -38
-124 0 -28 24 -32 36 -36 90 -5 72 10 116 47 136 34 18 65 19 100 0z m1 -287
c0 -22 -27 -48 -50 -48 -23 0 -50 26 -50 48 0 14 10 17 50 17 40 0 50 -3 50
-17z m-50 -68 c13 0 35 11 49 24 20 19 31 22 49 15 19 -7 22 -16 22 -59 l0
-50 -120 0 -120 0 0 50 c0 43 3 52 23 59 17 7 28 4 48 -15 14 -13 36 -24 49
-24z m-140 -30 c0 -38 -2 -40 -30 -40 -23 0 -30 4 -30 20 0 21 33 60 50 60 6
0 10 -18 10 -40z m320 20 c11 -11 20 -29 20 -40 0 -16 -7 -20 -30 -20 -28 0
-30 2 -30 40 0 45 10 50 40 20z"/>
<path d="M202 393 l-23 -24 23 -19 c29 -24 31 -24 53 0 18 20 18 21 -6 44
l-24 23 -23 -24z"/>
<path d="M264 289 c-9 -16 10 -31 30 -23 13 5 14 9 5 20 -14 17 -25 18 -35 3z"/>
<path d="M300 65 c0 -8 5 -15 10 -15 6 0 10 7 10 15 0 8 -4 15 -10 15 -5 0
-10 -7 -10 -15z"/>
<path d="M330 65 c0 -8 5 -15 10 -15 6 0 10 7 10 15 0 8 -4 15 -10 15 -5 0
-10 -7 -10 -15z"/>
</g>
</svg>
